<svg xmlns="http://www.w3.org/2000/svg" viewBox="306 321 412 384" preserveAspectRatio="xMidYMid meet">
  <path fill="currentColor" d=" M655.330139,532.337891   C659.988770,498.849243 653.723572,468.042358 634.398376,440.723755   C610.059143,406.317291 576.665894,386.569305 534.209412,385.367981   C494.764282,384.251831 455.270172,384.410980 415.785828,384.606049   C381.476776,384.775574 347.152039,384.551971 312.834503,384.463776   C309.448181,384.455078 307.974335,383.279358 307.986786,379.845337   C308.049683,362.517822 308.073334,345.189697 307.986389,327.862427   C307.963715,323.343689 310.561157,322.847900 314.167328,322.866241   C334.327209,322.968781 354.487701,322.969086 374.647980,322.979767   C426.131805,323.006989 477.621704,322.544312 529.097534,323.195465   C568.501343,323.693878 605.099609,334.660065 637.353577,357.788727   C680.395935,388.653442 706.527222,430.370483 715.445374,482.691040   C729.045959,562.482422 688.551331,640.879089 619.679626,678.888245   C592.328186,693.982971 562.854065,701.144958 531.773560,702.424072   C527.102783,702.616272 525.692749,700.935059 525.735718,696.430603   C525.896362,679.604309 525.917419,662.772888 525.649597,645.948792   C525.575562,641.296387 527.153259,639.905945 531.654846,639.871887   C566.795044,639.605835 596.437683,626.208740 620.895142,601.346802   C639.669189,582.262207 650.776062,559.125488 655.330139,532.337891  z"/>
  <path fill="currentColor" d=" M500.271790,679.000000   C500.282990,685.665222 500.201508,691.832581 500.345093,697.994690   C500.419281,701.179565 499.202148,702.453735 495.970306,702.438477   C478.474762,702.355896 460.978088,702.326904 443.483063,702.453796   C439.401245,702.483459 438.921417,700.294128 438.932831,697.055969   C438.994385,679.560303 438.967987,662.064270 438.962006,644.568359   C438.936249,569.252319 438.905762,493.936249 438.880981,418.620178   C438.878510,411.140320 439.061646,411.001129 446.340942,411.009705   C462.003754,411.028107 477.666626,411.003876 493.329468,411.003754   C500.099274,411.003693 500.291382,411.189911 500.291107,418.059082   C500.287720,504.872711 500.279449,591.686340 500.271790,679.000000  z"/>
</svg>
